HIERARCHY
ROOT RightCollar
{
	OFFSET -0.263122 -0.003980 3.801207
	CHANNELS 6 Xposition Yposition Zposition Xrotation Yrotation Zrotation
	JOINT RightShoulder
	{
		OFFSET -1.381779 0.000000 0.000000
		CHANNELS 3 Xrotation Yrotation Zrotation
		JOINT RightElbow
		{
			OFFSET -2.454748 0.000000 0.000000
			CHANNELS 3 Xrotation Yrotation Zrotation
			JOINT RightWrist
			{
				OFFSET -2.035185 -0.001238 0.000000
				CHANNELS 3 Xrotation Yrotation Zrotation
				End Site
				{
					OFFSET -1.535909 0.000000 0.000000
				}
			}
		}
	}
}
MOTION
Frames: 46
Frame Time: 0.050000
-0.263122 -0.003980 3.801207 -1.342822 -9.278640 0.890697 17.075032 -79.075675 33.137629 -42.943838 -7.315856 13.907673 -37.612120 0.950957 -2.599243 
-0.263122 -0.003980 3.801207 -1.058785 -9.017542 1.347151 25.500023 -78.777244 44.867062 -41.111073 -13.482329 20.467666 -40.973420 4.743639 2.712845 
-0.263122 -0.003980 3.801207 -1.143453 -8.674171 1.786489 29.670738 -77.825846 51.063703 -36.262342 -20.826977 28.804110 -50.484425 7.772678 9.788435 
-0.263122 -0.003980 3.801207 -1.550326 -8.068768 2.217214 31.040546 -77.247834 53.976273 -29.254677 -29.988683 38.548710 -56.527120 9.465475 17.695574 
-0.263122 -0.003980 3.801207 -1.540864 -7.641864 2.375806 32.819588 -77.046180 57.190677 -20.002469 -35.592952 50.499584 -57.451761 10.159971 19.292911 
-0.263122 -0.003980 3.801207 -1.646366 -7.466357 2.678647 37.059493 -76.157866 63.104760 -10.970925 -37.306876 62.435900 -54.606212 11.093687 19.917837 
-0.263122 -0.003980 3.801207 -1.627699 -7.459396 3.155995 42.854591 -74.464724 70.731151 -3.135109 -35.930449 72.645551 -49.792523 12.486947 21.549247 
-0.263122 -0.003980 3.801207 -0.664163 -6.707618 3.925137 50.345362 -72.102619 79.874561 3.660088 -34.384938 80.645970 -42.701540 14.080014 23.198879 
-0.263122 -0.003980 3.801207 -0.141997 -6.395649 4.480619 52.239472 -69.107895 84.029413 9.888948 -33.104752 85.950315 -34.130131 16.211445 23.774645 
-0.263122 -0.003980 3.801207 -0.418400 -5.630150 5.347138 52.719471 -66.679742 86.738382 15.613606 -31.687560 89.188132 -25.539479 17.211518 24.826547 
-0.263122 -0.003980 3.801207 -0.740094 -4.983586 5.671977 52.858305 -64.994181 88.639729 21.026338 -30.411831 92.323776 -16.616776 19.301082 25.892327 
-0.263122 -0.003980 3.801207 -0.452734 -4.188302 5.709563 54.312315 -64.100226 90.426425 25.201149 -29.536822 94.093629 -9.215482 19.551527 27.188039 
-0.263122 -0.003980 3.801207 -0.821984 -4.453058 5.596568 52.757286 -63.120066 89.800780 29.587031 -29.141774 95.476298 -3.596674 20.756508 26.734781 
-0.263122 -0.003980 3.801207 -0.634901 -4.433565 5.382422 52.289790 -61.730587 90.489413 31.256202 -28.153154 95.371113 0.703557 19.947458 26.499141 
-0.263122 -0.003980 3.801207 -0.387737 -4.166070 5.673813 53.106384 -60.805909 91.795987 33.386976 -27.763636 94.575744 5.166769 20.923123 25.990596 
-0.263122 -0.003980 3.801207 -0.363057 -4.132048 5.315434 54.855923 -62.299959 92.640403 36.606990 -27.107602 94.197919 8.390115 21.085509 26.180769 
-0.263122 -0.003980 3.801207 -0.313210 -4.431774 4.933806 56.267498 -62.753463 93.056635 39.037810 -26.859644 94.301895 11.261391 21.740291 26.013969 
-0.263122 -0.003980 3.801207 -0.200882 -4.645301 4.775252 57.015424 -62.529999 93.166150 40.683048 -26.119583 94.571182 13.871024 22.092230 25.805197 
-0.263122 -0.003980 3.801207 -0.286291 -4.780398 4.653039 58.100021 -63.083053 93.212855 43.139577 -25.729854 94.196478 16.362055 22.591428 25.767729 
-0.263122 -0.003980 3.801207 -0.316689 -5.015317 4.447882 59.080207 -63.740350 92.636169 45.429535 -24.900259 93.750924 18.512456 23.202274 25.741434 
-0.263122 -0.003980 3.801207 -0.318716 -5.118942 4.434257 59.963071 -64.300822 92.108769 47.363779 -24.386644 92.960480 20.245835 23.733809 26.014864 
-0.263122 -0.003980 3.801207 -0.203320 -5.278795 4.256194 60.487411 -64.572602 91.542751 48.798420 -23.754920 92.408758 21.456457 23.788080 25.433490 
-0.263122 -0.003980 3.801207 -0.028170 -5.284661 4.087574 62.123528 -65.149473 91.923514 50.299777 -23.824965 91.673488 22.145370 24.115569 25.535309 
-0.263122 -0.003980 3.801207 -0.017383 -5.517836 3.949399 63.192050 -65.690464 91.931068 51.458054 -23.698228 90.969609 22.514581 24.014380 25.420255 
-0.263122 -0.003980 3.801207 -0.195603 -5.692046 3.712040 64.156561 -66.294226 91.858763 52.551530 -23.764489 90.325126 23.215413 24.186977 25.561974 
-0.263122 -0.003980 3.801207 -0.448268 -5.900484 3.705612 64.324167 -66.763760 91.148608 53.080928 -24.065538 89.480894 23.639013 23.768519 25.350221 
-0.263122 -0.003980 3.801207 -0.361616 -5.618469 3.811535 65.542912 -68.018903 91.259763 54.361947 -24.841313 88.663116 24.250146 23.892765 25.013754 
-0.263122 -0.003980 3.801207 0.080725 -5.382978 3.998063 66.255321 -69.392980 90.866105 55.282882 -25.572906 87.956683 24.928230 23.296225 24.800034 
-0.263122 -0.003980 3.801207 0.409928 -5.398754 3.509514 66.665187 -69.775088 91.004921 55.947743 -25.477816 87.787035 24.401974 23.085305 24.990573 
-0.263122 -0.003980 3.801207 -0.080706 -5.535652 3.609183 63.975124 -67.611763 89.515093 54.441563 -24.113356 88.175912 22.886118 22.375655 24.973779 
-0.263122 -0.003980 3.801207 0.580000 -5.255268 4.364554 62.874118 -68.222757 88.887010 55.057598 -23.876311 88.033987 22.782890 21.906018 25.297100 
-0.263122 -0.003980 3.801207 0.191861 -5.540072 3.768726 61.818198 -67.724952 88.043932 54.834203 -23.183774 88.417857 21.539212 20.942924 25.552988 
-0.263122 -0.003980 3.801207 -0.222187 -5.849634 3.999647 60.896505 -66.539607 87.558934 54.332632 -22.392326 88.460362 21.660734 20.844262 26.337192 
-0.263122 -0.003980 3.801207 -0.208249 -5.554751 4.088136 60.556027 -66.720218 87.650445 54.096744 -22.456164 88.473325 21.748203 20.213994 26.837085 
-0.263122 -0.003980 3.801207 -0.076771 -5.724711 3.556155 60.501126 -66.927931 87.390652 54.082421 -22.741369 88.238128 22.056242 20.112672 27.490069 
-0.263122 -0.003980 3.801207 0.085200 -5.933460 3.868278 59.563778 -66.972778 86.805701 53.831887 -23.125415 87.726116 22.125578 19.445280 27.823047 
-0.263122 -0.003980 3.801207 -0.229516 -5.851760 3.802771 59.725927 -67.607186 86.563864 54.533368 -23.549936 87.360210 22.256286 19.409203 28.088750 
-0.263122 -0.003980 3.801207 0.111702 -6.252750 3.646029 58.112260 -67.830588 85.344354 54.896792 -23.317007 86.765573 21.456380 18.978954 29.243612 
-0.263122 -0.003980 3.801207 0.112800 -6.212419 3.723689 58.743500 -68.203059 85.651071 55.259161 -23.377004 86.337730 21.975493 19.233630 30.113102 
-0.263122 -0.003980 3.801207 0.213541 -6.470715 3.340812 58.725639 -69.113284 85.259250 55.825694 -23.630429 85.957890 21.844634 19.324033 31.407785 
-0.263122 -0.003980 3.801207 0.008880 -6.620018 3.399477 58.627537 -69.645240 83.988070 56.651921 -24.052532 85.563446 21.639825 19.321253 31.963885 
-0.263122 -0.003980 3.801207 0.015738 -6.915831 3.364569 56.940692 -69.863007 81.324836 57.916862 -25.069948 85.457032 20.196287 18.805147 32.261702 
-0.263122 -0.003980 3.801207 0.047740 -7.066243 3.308981 57.031752 -70.591993 80.445524 58.793742 -26.827595 84.966822 19.122728 18.953118 31.310444 
-0.263122 -0.003980 3.801207 0.223280 -7.377309 3.175927 57.940775 -72.124844 80.385022 59.544216 -29.279003 84.629391 18.246587 18.861120 29.056362 
-0.263122 -0.003980 3.801207 0.425290 -7.733182 2.966819 59.101647 -73.348589 80.687265 59.992768 -30.706727 84.607835 18.932099 19.176110 25.375840 
-0.263122 -0.003980 3.801207 0.323422 -8.052806 2.748334 58.627366 -73.795536 79.733081 60.873132 -31.959531 84.912119 18.323495 18.864077 22.238901 
